:SAMPLES-PER-SECOND 30
:FULLY-SPECIFIED
:DEGREES
1
root  86.6615 38.8841 -0.339551 -175.657 -88.0121 172.083
RightUpLeg  -3.04988 -7.50006 -2.93892
RightLeg  12.0702 9.83579 0.600851
RightFoot  -6.17138 -0.0922868 0.98389
RightToes  -8.3237e-009 0 -3.6325e-017
Spine  -1.43561 1.04359 7.8434
Spine1  10.1454 2.69007 -4.45452
HEad  -13.9138 -4.57172 -3.43999
LeftShoulder1  -0.0398244 3.60757 -32.2773
LeftArm  7.08896 3.6692 -42.6444
LeftForeArm  30.56 -13.1279 -8.9299
LeftHand  -0.0392875 7.02627 -0.0648236
RightShoulder  -0.790548 -5.59972 31.052
RightArm  24.195 3.74448 48.9832
RightForeArm  13.0611 9.90841 9.62176
RightHand  -0.0983763 5.21572 -1.38558
LeftUpLeg  7.04254 4.34761 6.37931
LeftLeg  150.557 -77.085 -150.275
LeftFoot  -13.4287 0.0610556 -0.920278
LeftToes  -1.18267e-011 3.61711e-011 9.57411e-011
2
root  86.6443 38.8779 -0.339329 -175.331 -88.0222 171.793
RightUpLeg  -3.0261 -7.53206 -2.9628
RightLeg  12.0344 9.86601 0.613463
RightFoot  -6.2391 -0.0879507 0.9166
RightToes  -8.3237e-009 0 -3.6325e-017
Spine  -1.7352 1.07477 7.80881
Spine1  10.5424 2.70705 -4.36805
HEad  -14.048 -4.65703 -3.50494
LeftShoulder1  -0.051212 3.63737 -32.2186
LeftArm  6.47574 3.45713 -42.7949
LeftForeArm  31.0311 -12.8144 -9.01886
LeftHand  -0.0362339 6.52188 -0.0347785
RightShoulder  -0.782155 -5.58228 30.9625
RightArm  24.2314 3.78436 49.0612
RightForeArm  13.0884 10.0289 9.57038
RightHand  -0.0869442 5.12439 -1.26612
LeftUpLeg  7.02288 4.33307 6.32132
LeftLeg  151.718 -76.8107 -151.406
LeftFoot  -13.5168 0.0620622 -0.935922
LeftToes  -1.18267e-011 3.61711e-011 9.57411e-011
3
root  86.6386 38.8856 -0.342321 -176.025 -88.0447 172.376
RightUpLeg  -2.81303 -7.53264 -2.94921
RightLeg  11.8682 9.78757 0.581809
RightFoot  -6.19065 -0.0880372 0.917942
RightToes  -8.3237e-009 0 -3.6325e-017
Spine  -1.47832 1.08162 7.71948
Spine1  10.4522 2.68309 -4.20385
HEad  -13.6861 -4.83722 -3.80133
LeftShoulder1  -0.0763912 3.70259 -32.3182
LeftArm  7.01033 3.31171 -42.7807
LeftForeArm  30.8568 -12.9424 -9.02697
LeftHand  -0.0335719 6.13418 -0.222772
RightShoulder  -0.789468 -5.60039 30.9898
RightArm  24.3841 3.71551 48.9399
RightForeArm  13.0979 10.2719 9.47223
RightHand  -0.0830007 4.83261 -1.24025
LeftUpLeg  7.28488 4.22285 6.34598
LeftLeg  147.675 -78.0034 -147.293
LeftFoot  -13.569 0.0624174 -0.941443
LeftToes  -1.18267e-011 3.61711e-011 9.57411e-011
4
root  86.6155 38.8944 -0.35267 -175.62 -88.0223 172.098
RightUpLeg  -2.91486 -7.44891 -2.9039
RightLeg  11.8346 9.76308 0.521512
RightFoot  -6.14304 -0.0910243 0.964298
RightToes  -8.3237e-009 0 -3.6325e-017
Spine  -1.8326 1.16218 7.68253
Spine1  10.7114 2.74994 -4.18084
HEad  -13.3024 -4.76621 -3.8211
LeftShoulder1  -0.0668019 3.67795 -32.2447
LeftArm  6.40592 3.10183 -42.9115
LeftForeArm  31.7533 -12.6114 -9.11282
LeftHand  -0.0258004 4.95027 -0.53146
RightShoulder  -0.801507 -5.63137 31.0131
RightArm  24.4055 3.75352 48.9107
RightForeArm  13.0082 10.2363 9.49596
RightHand  -0.0889658 4.80533 -1.31109
LeftUpLeg  7.61862 4.35988 6.43927
LeftLeg  138.273 -80.5097 -137.918
LeftFoot  -13.7557 0.062113 -0.959379
LeftToes  -1.18267e-011 3.61711e-011 9.57411e-011
5
root  86.5929 38.896 -0.352384 -172.711 -88.0934 169.288
RightUpLeg  -3.03577 -7.48124 -3.00164
RightLeg  11.9946 9.77838 0.537993
RightFoot  -6.28644 -0.0987979 1.08493
RightToes  -8.3237e-009 0 -3.6325e-017
Spine  -1.86698 1.12961 7.62505
Spine1  10.5436 2.72105 -4.22336
HEad  -13.1229 -4.50878 -3.66371
LeftShoulder1  -0.0642741 3.67186 -32.1362
LeftArm  7.03817 3.22305 -42.9494
LeftForeArm  30.9302 -13.0278 -8.97807
LeftHand  -0.0489864 6.72481 -0.976417
RightShoulder  -0.809529 -5.64935 31.0732
RightArm  24.5122 3.83967 48.8884
RightForeArm  13.0468 9.98079 9.64496
RightHand  -0.0788091 5.09026 -1.17858
LeftUpLeg  7.57551 4.29179 6.30756
LeftLeg  138.426 -80.5025 -138.04
LeftFoot  -13.7993 0.0626164 -0.93427
LeftToes  -1.18267e-011 3.61711e-011 9.57411e-011
6
root  86.5827 38.9374 -0.358347 -166.648 -88.1273 163.093
RightUpLeg  -2.69568 -7.55959 -3.23965
RightLeg  11.6362 9.79557 0.494559
RightFoot  -6.06832 -0.0957658 1.03788
RightToes  -8.3237e-009 0 -3.6325e-017
Spine  -1.74046 1.02177 7.366
Spine1  10.6947 2.62172 -4.29734
HEad  -13.7845 -4.39348 -3.4807
LeftShoulder1  -0.0785311 3.7092 -32.1176
LeftArm  7.25438 3.06261 -43.0426
LeftForeArm  30.6143 -13.2405 -8.88231
LeftHand  -0.0703743 7.70849 -1.73871
RightShoulder  -0.78253 -5.59075 30.8318
RightArm  24.4974 3.94732 49.1541
RightForeArm  13.2743 10.0281 9.60886
RightHand  -0.059296 4.63558 -0.979206
LeftUpLeg  7.92345 4.21486 6.12583
LeftLeg  128.167 -81.7819 -127.721
LeftFoot  -13.5862 0.0682598 -0.680477
LeftToes  -1.18267e-011 3.61711e-011 9.57411e-011
7
root  86.5623 38.9152 -0.355202 -169.704 -88.0829 166.114
RightUpLeg  -2.68965 -7.53494 -3.14059
RightLeg  11.7557 9.77104 0.513568
RightFoot  -6.17608 -0.0863015 0.891006
RightToes  -8.3237e-009 0 -3.6325e-017
Spine  -1.70503 1.0749 7.47276
Spine1  10.6914 2.66157 -4.20416
HEad  -13.6718 -4.68204 -3.6616
LeftShoulder1  -0.0613231 3.66434 -32.0928
LeftArm  7.03064 3.08388 -43.099
LeftForeArm  30.7621 -13.1454 -8.90037
LeftHand  -0.0603956 7.1638 -1.53079
RightShoulder  -0.779363 -5.57794 30.9061
RightArm  24.5768 4.05768 48.9871
RightForeArm  13.0641 10.0771 9.60743
RightHand  -0.0327224 4.94185 -0.659845
LeftUpLeg  7.82627 4.25021 6.17382
LeftLeg  135.44 -80.5435 -134.972
LeftFoot  -13.7926 0.0674883 -0.71036
LeftToes  -1.18267e-011 3.61711e-011 9.57411e-011
8
root  86.5458 38.8732 -0.342714 -176.776 -88.0589 173.276
RightUpLeg  -3.0146 -7.48919 -2.89819
RightLeg  12.2671 9.80145 0.617136
RightFoot  -6.37646 -0.08484 0.868324
RightToes  -8.3237e-009 0 -3.6325e-017
Spine  -1.73244 1.08964 7.9348
Spine1  10.605 2.69643 -4.23058
HEad  -13.4843 -4.75459 -3.70701
LeftShoulder1  -0.0450937 3.6217 -32.1396
LeftArm  6.6825 3.06335 -42.969
LeftForeArm  31.0378 -12.9568 -8.95454
LeftHand  -0.0521209 6.59222 -1.48204
RightShoulder  -0.77851 -5.5815 30.8023
RightArm  24.5047 4.08144 49.0815
RightForeArm  12.8522 9.96457 9.66747
RightHand  -0.101331 5.29219 -1.41624
LeftUpLeg  7.30287 4.28739 6.29903
LeftLeg  151.176 -77.1686 -150.704
LeftFoot  -13.8925 0.0626998 -0.932605
LeftToes  -1.18267e-011 3.61711e-011 9.57411e-011
9
root  86.5226 38.9329 -0.364522 -170.412 -88.2591 167.01
RightUpLeg  -2.71478 -7.6149 -3.12286
RightLeg  11.5776 9.66596 0.607468
RightFoot  -6.05623 -0.0804334 0.799936
RightToes  -8.3237e-009 0 -3.6325e-017
Spine  -1.69672 0.926128 7.63067
Spine1  10.3136 2.53827 -4.46731
HEad  -13.4686 -4.6898 -3.64533
LeftShoulder1  -0.0545405 3.64661 -32.0773
LeftArm  6.81567 3.13929 -42.8552
LeftForeArm  31.1865 -13.0045 -8.94243
LeftHand  -0.0358622 5.49799 -1.11735
RightShoulder  -0.786553 -5.59559 30.9349
RightArm  24.68 4.05276 49.0147
RightForeArm  13.1231 9.96898 9.68866
RightHand  -0.0860458 4.79374 -1.27683
LeftUpLeg  7.71513 4.20786 6.26995
LeftLeg  134.37 -80.8611 -133.904
LeftFoot  -13.8808 0.07082 -0.563211
LeftToes  -1.18267e-011 3.61711e-011 9.57411e-011
10
root  86.5137 38.9094 -0.359697 -172.394 -88.2784 168.955
RightUpLeg  -2.78106 -7.60559 -3.06439
RightLeg  11.8431 9.64598 0.636273
RightFoot  -6.23235 -0.0809805 0.808426
RightToes  -8.3237e-009 0 -3.6325e-017
Spine  -1.8348 0.978319 7.64307
Spine1  10.6832 2.54547 -4.22157
HEad  -13.5372 -4.82885 -3.83637
LeftShoulder1  -0.0722252 3.69283 -32.0993
LeftArm  6.69481 2.78745 -43.0589
LeftForeArm  31.1803 -12.8681 -9.01288
LeftHand  -0.0314947 5.14708 0.0412365
RightShoulder  -0.760216 -5.53609 30.7308
RightArm  24.453 4.11881 49.1381
RightForeArm  13.5709 9.97923 9.61928
RightHand  -0.0601965 4.70784 -0.985598
LeftUpLeg  7.15132 4.17153 6.22488
LeftLeg  149.319 -77.4756 -148.883
LeftFoot  -13.4774 0.069709 -0.599126
LeftToes  -1.18267e-011 3.61711e-011 9.57411e-011
11
root  86.4921 38.8949 -0.361428 -171.863 -88.305 168.468
RightUpLeg  -2.82823 -7.5743 -3.05287
RightLeg  11.9287 9.59804 0.606172
RightFoot  -6.3925 -0.080997 0.808682
RightToes  -8.3237e-009 0 -3.6325e-017
Spine  -1.70754 0.925249 7.78239
Spine1  10.3768 2.54622 -4.46078
HEad  -13.3979 -4.74193 -3.7318
LeftShoulder1  -0.0688054 3.68451 -31.9623
LeftArm  6.95087 3.02554 -43.0633
LeftForeArm  30.849 -13.1133 -8.90372
LeftHand  -0.0272234 4.85822 0.239804
RightShoulder  -0.779778 -5.5788 30.9105
RightArm  24.6579 4.11041 48.9967
RightForeArm  13.6929 10.0318 9.63445
RightHand  -0.0516112 4.39387 -0.895323
LeftUpLeg  7.14358 4.16356 6.21
LeftLeg  149.643 -77.3455 -149.198
LeftFoot  -13.671 0.0694609 -0.62745
LeftToes  -1.18267e-011 3.61711e-011 9.57411e-011
